<svg xmlns="http://www.w3.org/2000/svg" width="73.015" height="73" viewBox="0 0 73.015 73"><defs><style>.a{fill:#fff;}</style></defs><g transform="translate(-607 -1623)"><g transform="translate(607 1623)"><g transform="translate(0 0)"><path class="a" d="M54.884,34.632a1.793,1.793,0,0,0-2.351.018l-4.9,4.382v-.574a1.217,1.217,0,0,0-2.433,0v2.753l-2.028,1.815A1.217,1.217,0,0,0,44.8,44.84l8.922-7.986,8.922,7.986a1.217,1.217,0,1,0,1.623-1.813Z" transform="translate(-36.679 -29.333)"/><path class="a" d="M75.6,119.52a1.217,1.217,0,0,0-1.217,1.217v8.517H62.22v-8.517a1.217,1.217,0,1,0-2.433,0v9.289a1.683,1.683,0,0,0,1.7,1.661H75.117a1.686,1.686,0,0,0,1.7-1.664v-9.286A1.217,1.217,0,0,0,75.6,119.52Z" transform="translate(-51.263 -102.487)"/><path class="a" d="M68.3,221.92a8.517,8.517,0,1,0,8.517,8.517A8.517,8.517,0,0,0,68.3,221.92Zm-6.083,8.517a6.094,6.094,0,0,1,4.867-5.962v5.272l-4.5,2.7A6,6,0,0,1,62.22,230.437Zm1.619,4.1,4.276-2.566,3.538,3.538A6.025,6.025,0,0,1,63.839,234.533Zm9.534-.748-3.853-3.852v-5.458a6.072,6.072,0,0,1,3.853,9.31Z" transform="translate(-51.263 -190.287)"/><path class="a" d="M270.62,51.22V47.056a1.92,1.92,0,0,0-1.919-1.919h-3.463a1.92,1.92,0,0,0-1.919,1.919V51.22h-2.433V43.592a2.107,2.107,0,0,0-2.1-2.1h-3.09a2.107,2.107,0,0,0-2.1,2.1V51.22h-2.433V37.837A2.433,2.433,0,0,0,248.72,35.4h-2.433a2.433,2.433,0,0,0-2.433,2.433V51.22h-1.217A1.217,1.217,0,0,1,241.42,50V35.4a1.217,1.217,0,1,0-2.433,0V50a3.65,3.65,0,0,0,3.65,3.65H270.62a1.217,1.217,0,1,0,0-2.433Zm-21.9,0h-2.433V37.837h2.433Zm9.733,0H256.02v-7.3h2.433Zm9.733,0h-2.433V47.57h2.433v3.65Z" transform="translate(-204.913 -29.32)"/><path class="a" d="M270.62,221.887H242.637a1.217,1.217,0,0,1-1.217-1.217v-1.93l4.006-4.006a1.242,1.242,0,0,1,1.72,0l1.426,1.426a3.65,3.65,0,0,0,5.161,0l5.076-5.076a1.242,1.242,0,0,1,1.72,0l1.426,1.427a3.657,3.657,0,0,0,5.161,0l4.363-4.363a1.217,1.217,0,0,0-1.72-1.72L265.4,210.79a1.217,1.217,0,0,1-1.72,0l-1.426-1.426a3.738,3.738,0,0,0-5.161,0l-5.076,5.076a1.217,1.217,0,0,1-1.72,0l-1.425-1.426a3.739,3.739,0,0,0-5.162,0L241.42,215.3v-9.23a1.217,1.217,0,1,0-2.433,0v14.6a3.65,3.65,0,0,0,3.65,3.65H270.62a1.217,1.217,0,1,0,0-2.433Z" transform="translate(-204.913 -175.654)"/><path class="a" d="M73.008,56.572V6.8A6.448,6.448,0,0,0,66.924.053H6.091A6.448,6.448,0,0,0,.008,6.8V56.572A6.448,6.448,0,0,0,6.091,63.32H25.558v2.433H20.691a4.867,4.867,0,0,0-4.867,4.867v1.217a1.217,1.217,0,0,0,1.217,1.217H55.974a1.217,1.217,0,0,0,1.217-1.217V70.62a4.867,4.867,0,0,0-4.867-4.867H47.458V63.32H66.924A6.448,6.448,0,0,0,73.008,56.572ZM52.324,68.187a2.433,2.433,0,0,1,2.433,2.433h-36.5a2.433,2.433,0,0,1,2.433-2.433ZM27.991,65.753V63.32H45.024v2.433Zm38.933-4.867H6.091a4.03,4.03,0,0,1-3.65-4.314V53.586H70.575v2.986A4.03,4.03,0,0,1,66.924,60.886ZM70.574,6.8V51.153H2.441V6.8a4.028,4.028,0,0,1,3.65-4.313H66.924A4.028,4.028,0,0,1,70.574,6.8Z" transform="translate(0 -0.053)"/></g></g></g></svg>