<svg xmlns="http://www.w3.org/2000/svg" width="73.079" height="73" viewBox="0 0 73.079 73"><defs><style>.a{fill:#fff;}</style></defs><g transform="translate(-559 -1857)"><path class="a" d="M175.742,197.2a11.518,11.518,0,1,0,11.518,11.518A11.532,11.532,0,0,0,175.742,197.2Zm0,20.875a9.357,9.357,0,1,1,9.357-9.357A9.368,9.368,0,0,1,175.742,218.079Z" transform="translate(418.104 1687.808)"/><path class="a" d="M36.445,28.762a3.172,3.172,0,1,0,3.172,3.172A3.175,3.175,0,0,0,36.445,28.762Zm0,4.182a1.01,1.01,0,1,1,1.01-1.01A1.011,1.011,0,0,1,36.445,32.944Z" transform="translate(530.527 1832.387)"/><path class="a" d="M92.43,28.762A3.172,3.172,0,1,0,95.6,31.934,3.176,3.176,0,0,0,92.43,28.762Zm0,4.182a1.01,1.01,0,1,1,1.01-1.01A1.011,1.011,0,0,1,92.43,32.944Z" transform="translate(482.469 1832.387)"/><path class="a" d="M148.418,28.762a3.172,3.172,0,1,0,3.172,3.172A3.175,3.175,0,0,0,148.418,28.762Zm0,4.182a1.01,1.01,0,1,1,1.01-1.01A1.012,1.012,0,0,1,148.418,32.944Z" transform="translate(434.465 1832.387)"/><path class="a" d="M104.835,155.493a1.081,1.081,0,0,0-1.081,1.081v4.77a1.081,1.081,0,0,0,2.162,0v-4.77A1.081,1.081,0,0,0,104.835,155.493Z" transform="translate(470.05 1723.676)"/><path class="a" d="M68.372,0H4.707A4.713,4.713,0,0,0,0,4.708v51.75a4.7,4.7,0,0,0,4.707,4.707H25.518V65H22.289a3.911,3.911,0,0,0-3.907,3.907v2.311A1.784,1.784,0,0,0,20.165,73H52.833a1.784,1.784,0,0,0,1.783-1.782V68.908A3.911,3.911,0,0,0,50.709,65H47.48V61.165h6.573l2.161,1.813a5.122,5.122,0,0,0,3.308,1.207q.229,0,.46-.02a5.166,5.166,0,0,0,4.246-3h4.064A4.7,4.7,0,0,0,73,56.458V51.332l.081-46.624A4.713,4.713,0,0,0,68.372,0ZM50.709,67.14a1.769,1.769,0,0,1,1.767,1.767v1.954H20.522V68.908a1.769,1.769,0,0,1,1.767-1.767ZM27.658,65V61.166H45.34V65ZM4.707,59.027a2.571,2.571,0,0,1-2.569-2.568V52.4h22.44a16.415,16.415,0,0,0,19.731.591L51.5,59.027Zm57.139,1.939a3.023,3.023,0,0,1-4.259.374L46,51.623a16.465,16.465,0,0,0,3.621-4.853l11.847,9.937a3.022,3.022,0,0,1,.374,4.258Zm9.013-4.507a2.571,2.571,0,0,1-2.569,2.568h-3.6c0-.151-.006-.3-.019-.454a5.129,5.129,0,0,0-1.825-3.5L59.668,52.4H70.859Zm0-6.2H57.118l-6.645-5.574a16.394,16.394,0,0,0,.507-1.927,1.07,1.07,0,1,0-2.1-.416A14.318,14.318,0,1,1,34.838,25.23a14.163,14.163,0,0,1,8.931,3.126A14.385,14.385,0,0,1,48.762,36.2a1.069,1.069,0,1,0,2.08-.5,16.188,16.188,0,0,0-.785-2.413H60.9a2.213,2.213,0,0,0,2.211-2.211V20.167A2.213,2.213,0,0,0,60.9,17.956H29.086a1.07,1.07,0,1,0,0,2.139H60.9a.072.072,0,0,1,.071.071V31.082a.072.072,0,0,1-.071.071H48.987a16.446,16.446,0,0,0-28.3,0H12.256a.072.072,0,0,1-.071-.071V20.167a.071.071,0,0,1,.071-.071H22.442a1.07,1.07,0,1,0,0-2.139H12.256a2.213,2.213,0,0,0-2.21,2.211V31.082a2.213,2.213,0,0,0,2.21,2.211h7.362a16.427,16.427,0,0,0,2.743,16.97H2.139V14.55h68.72Zm0-37.852H2.218v-7.7A2.571,2.571,0,0,1,4.786,2.14h63.5a2.571,2.571,0,0,1,2.569,2.568Z" transform="translate(559 1856.999)"/><path class="a" d="M218.493,250.578l2.376-3.04a1.081,1.081,0,0,0-1.7-1.331l-2.376,3.04a1.081,1.081,0,0,0,1.7,1.331Z" transform="translate(373.328 1646.262)"/><path class="a" d="M231.006,242.134a1.081,1.081,0,0,0-1.517.186l-6.237,7.98a1.081,1.081,0,1,0,1.7,1.332l6.237-7.98A1.081,1.081,0,0,0,231.006,242.134Z" transform="translate(367.767 1649.565)"/></g></svg>