<svg xmlns="http://www.w3.org/2000/svg" width="73" height="73" viewBox="0 0 73 73"><defs><style>.a{fill:#fff;}</style></defs><path class="a" d="M54.6,41.522,47.793,51.3l-4.8-3.943a1.216,1.216,0,1,0-1.543,1.88l5.823,4.78a1.214,1.214,0,0,0,.771.277,1.11,1.11,0,0,0,.167-.012,1.219,1.219,0,0,0,.832-.51L56.6,42.913a1.217,1.217,0,0,0-2-1.391Z" transform="translate(8.883 8.883)"/><path class="a" d="M11.475,6a5.475,5.475,0,1,0,5.475,5.475A5.482,5.482,0,0,0,11.475,6Zm0,8.517a3.042,3.042,0,1,1,3.042-3.042A3.045,3.045,0,0,1,11.475,14.517Z" transform="translate(1.3 1.3)"/><circle class="a" cx="1.217" cy="1.217" r="1.217" transform="translate(59.617 9.734)"/><circle class="a" cx="1.217" cy="1.217" r="1.217" transform="translate(54.75 9.734)"/><circle class="a" cx="1.217" cy="1.217" r="1.217" transform="translate(62.05 13.384)"/><circle class="a" cx="1.217" cy="1.217" r="1.217" transform="translate(57.183 13.384)"/><circle class="a" cx="1.217" cy="1.217" r="1.217" transform="translate(49.883 9.734)"/><circle class="a" cx="1.217" cy="1.217" r="1.217" transform="translate(52.317 13.384)"/><circle class="a" cx="1.217" cy="1.217" r="1.217" transform="translate(45.017 9.734)"/><circle class="a" cx="1.217" cy="1.217" r="1.217" transform="translate(47.45 13.384)"/><circle class="a" cx="1.217" cy="1.217" r="1.217" transform="translate(40.15 9.734)"/><circle class="a" cx="1.217" cy="1.217" r="1.217" transform="translate(42.583 13.384)"/><path class="a" d="M73,19.944V5.606A5.613,5.613,0,0,0,67.394,0H5.606A5.613,5.613,0,0,0,0,5.606V19.942a5.578,5.578,0,0,0,2.162,4.391A5.577,5.577,0,0,0,0,28.723V43.059A5.578,5.578,0,0,0,2.162,47.45,5.577,5.577,0,0,0,0,51.84V66.176a5.613,5.613,0,0,0,5.606,5.608h45.5a15.8,15.8,0,0,0,18.914-23.8A5.607,5.607,0,0,0,73,43.06V28.723a5.573,5.573,0,0,0-2.162-4.39A5.577,5.577,0,0,0,73,19.944ZM47.081,69.35H5.606a3.177,3.177,0,0,1-3.173-3.173V51.84a3.177,3.177,0,0,1,3.173-3.173H43.871c-.085.133-.161.273-.241.406q-.325.542-.608,1.11c-.1.193-.193.386-.281.583s-.18.425-.265.639-.168.443-.245.667c-.067.2-.137.391-.2.59q-.181.6-.314,1.217c-.03.145-.052.293-.08.439-.061.331-.113.663-.153,1-.017.147-.035.294-.047.443-.043.475-.072.948-.072,1.425a15.777,15.777,0,0,0,.1,1.7c.017.161.051.316.073.476.056.4.116.8.2,1.187.04.186.095.366.142.55.091.355.186.707.3,1.051.066.2.141.391.214.585.119.316.245.63.383.937.094.207.193.41.3.613.141.279.288.551.444.82.123.213.249.422.382.629.157.242.322.477.492.711.153.212.305.423.47.628s.356.419.54.623.353.4.541.595c.212.215.44.414.664.616C46.766,69.053,46.915,69.211,47.081,69.35Zm10.1,1.217a13.3,13.3,0,0,1-5.164-1.039l-.1-.045q-.526-.226-1.028-.5c-.1-.054-.2-.116-.3-.173-.252-.144-.5-.292-.741-.45-.094-.062-.186-.125-.279-.189-.274-.19-.541-.389-.8-.6-.041-.034-.085-.066-.127-.1q-.476-.394-.915-.831l-.021-.022c-.273-.273-.529-.56-.777-.855-.049-.057-.095-.116-.142-.174q-.33-.409-.629-.841c-.03-.045-.064-.088-.094-.133q-.332-.493-.618-1.017c-.038-.068-.069-.137-.106-.207q-.215-.411-.4-.837c-.051-.116-.1-.232-.148-.35q-.168-.412-.308-.838c-.03-.094-.067-.185-.095-.279-.111-.363-.206-.732-.286-1.107-.024-.116-.044-.232-.064-.349-.054-.288-.1-.578-.134-.872-.015-.122-.029-.245-.041-.366-.036-.4-.062-.8-.062-1.213,0-.434.024-.863.066-1.287.019-.2.054-.389.082-.584.032-.22.06-.442.1-.658.047-.245.11-.487.17-.728.04-.158.077-.316.122-.472.078-.268.169-.532.264-.794.044-.12.085-.242.133-.361q.166-.418.361-.824c.045-.1.09-.191.137-.285.142-.282.3-.561.459-.833.045-.075.09-.151.136-.225q.265-.422.56-.827c.043-.058.086-.117.13-.175.208-.275.426-.543.657-.8.039-.045.08-.088.12-.131q.416-.456.869-.871c.044-.041.089-.082.133-.122q.462-.412.958-.777c.039-.028.077-.058.116-.086.349-.253.711-.487,1.08-.7l.068-.041a13.167,13.167,0,0,1,1.217-.623l.006,0a13.324,13.324,0,0,1,3.989-1.085l.045-.006a13.158,13.158,0,0,1,1.405-.075,13.341,13.341,0,0,1,6.642,1.78l.012.007a13.358,13.358,0,0,1,1.13.731l.083.062c.339.248.668.511.984.792.039.034.078.071.117.106q.456.414.877.871a13.36,13.36,0,0,1-9.845,22.417ZM70.567,28.723V43.059A3.175,3.175,0,0,1,68.4,46.048a15.77,15.77,0,0,0-22.583.159l-.027.026H5.606A3.177,3.177,0,0,1,2.433,43.06V28.723A3.177,3.177,0,0,1,5.606,25.55H67.392A3.177,3.177,0,0,1,70.567,28.723ZM5.606,23.117a3.177,3.177,0,0,1-3.173-3.173V5.606A3.177,3.177,0,0,1,5.606,2.433H67.392a3.177,3.177,0,0,1,3.174,3.173V19.942a3.177,3.177,0,0,1-3.173,3.174Z"/><path class="a" d="M11.475,35.95A5.475,5.475,0,1,0,6,30.475,5.482,5.482,0,0,0,11.475,35.95Zm0-8.517a3.042,3.042,0,1,1-3.042,3.042A3.045,3.045,0,0,1,11.475,27.433Z" transform="translate(1.3 5.417)"/><circle class="a" cx="1.217" cy="1.217" r="1.217" transform="translate(59.617 32.85)"/><circle class="a" cx="1.217" cy="1.217" r="1.217" transform="translate(54.75 32.85)"/><circle class="a" cx="1.217" cy="1.217" r="1.217" transform="translate(62.05 36.5)"/><circle class="a" cx="1.217" cy="1.217" r="1.217" transform="translate(57.183 36.5)"/><circle class="a" cx="1.217" cy="1.217" r="1.217" transform="translate(49.883 32.85)"/><circle class="a" cx="1.217" cy="1.217" r="1.217" transform="translate(52.317 36.5)"/><circle class="a" cx="1.217" cy="1.217" r="1.217" transform="translate(45.017 32.85)"/><circle class="a" cx="1.217" cy="1.217" r="1.217" transform="translate(47.45 36.5)"/><circle class="a" cx="1.217" cy="1.217" r="1.217" transform="translate(40.15 32.85)"/><circle class="a" cx="1.217" cy="1.217" r="1.217" transform="translate(42.583 36.5)"/><path class="a" d="M11.475,44a5.475,5.475,0,1,0,5.475,5.475A5.482,5.482,0,0,0,11.475,44Zm0,8.517a3.042,3.042,0,1,1,3.042-3.042A3.045,3.045,0,0,1,11.475,52.517Z" transform="translate(1.3 9.533)"/></svg>