<?xml version="1.0" encoding="UTF-8" standalone="no"?>
<svg
   xmlns:dc="http://purl.org/dc/elements/1.1/"
   xmlns:cc="http://creativecommons.org/ns#"
   xmlns:rdf="http://www.w3.org/1999/02/22-rdf-syntax-ns#"
   xmlns:svg="http://www.w3.org/2000/svg"
   xmlns="http://www.w3.org/2000/svg"
   xmlns:sodipodi="http://sodipodi.sourceforge.net/DTD/sodipodi-0.dtd"
   xmlns:inkscape="http://www.inkscape.org/namespaces/inkscape"
   width="172.494"
   height="172.494"
   viewBox="0 0 172.494 172.494"
   version="1.1"
   id="svg3741"
   sodipodi:docname="provide.svg"
   inkscape:version="0.92.4 (5da689c313, 2019-01-14)">
  <metadata
     id="metadata3745">
    <rdf:RDF>
      <cc:Work
         rdf:about="">
        <dc:format>image/svg+xml</dc:format>
        <dc:type
           rdf:resource="http://purl.org/dc/dcmitype/StillImage" />
        <dc:title></dc:title>
      </cc:Work>
    </rdf:RDF>
  </metadata>
  <sodipodi:namedview
     pagecolor="#ffffff"
     bordercolor="#666666"
     borderopacity="1"
     objecttolerance="10"
     gridtolerance="10"
     guidetolerance="10"
     inkscape:pageopacity="0"
     inkscape:pageshadow="2"
     inkscape:window-width="1920"
     inkscape:window-height="1001"
     id="namedview3743"
     showgrid="false"
     inkscape:zoom="4.6842208"
     inkscape:cx="86.247002"
     inkscape:cy="86.247002"
     inkscape:window-x="-9"
     inkscape:window-y="-9"
     inkscape:window-maximized="1"
     inkscape:current-layer="svg3741" />
  <defs
     id="defs3737">
    <style
       id="style3730">.a{fill:url(#a);}</style>
    <linearGradient
       id="a"
       x1="64.5"
       x2="64.5"
       y2="129"
       gradientUnits="userSpaceOnUse"
       y1="0"
       gradientTransform="matrix(1.0000225,0,0,1.0000225,-107.09042,50.275533)">
      <stop
         offset="0"
         stop-color="#ee4876"
         id="stop3732" />
      <stop
         offset="1"
         stop-color="#6674bf"
         id="stop3734" />
    </linearGradient>
    <style
       id="style3909">.a{fill:#fff;}</style>
    <style
       id="style4009">.a{fill:#fff;}</style>
  </defs>
  <circle
     class="a"
     cx="-42.58897"
     cy="114.77699"
     r="64.50145"
     transform="rotate(-64.024285)"
     id="circle3739"
     style="fill:url(#a);stroke-width:1.00002253" />
  <g
     id="g3929"
     transform="translate(-601.51801,-1840.1283)">
    <path
       id="path3913"
       transform="translate(418.104,1687.808)"
       d="M 175.742,197.2 A 11.518,11.518 0 1 0 187.26,208.718 11.532,11.532 0 0 0 175.742,197.2 Z m 0,20.875 a 9.357,9.357 0 1 1 9.357,-9.357 9.368,9.368 0 0 1 -9.357,9.361 z"
       class="a"
       inkscape:connector-curvature="0"
       style="fill:#ffffff" />
    <path
       id="path3915"
       transform="translate(530.527,1832.387)"
       d="m 36.445,28.762 a 3.172,3.172 0 1 0 3.172,3.172 3.175,3.175 0 0 0 -3.172,-3.172 z m 0,4.182 a 1.01,1.01 0 1 1 1.01,-1.01 1.011,1.011 0 0 1 -1.01,1.01 z"
       class="a"
       inkscape:connector-curvature="0"
       style="fill:#ffffff" />
    <path
       id="path3917"
       transform="translate(482.469,1832.387)"
       d="m 92.43,28.762 a 3.172,3.172 0 1 0 3.17,3.172 3.176,3.176 0 0 0 -3.17,-3.172 z m 0,4.182 a 1.01,1.01 0 1 1 1.01,-1.01 1.011,1.011 0 0 1 -1.01,1.01 z"
       class="a"
       inkscape:connector-curvature="0"
       style="fill:#ffffff" />
    <path
       id="path3919"
       transform="translate(434.465,1832.387)"
       d="m 148.418,28.762 a 3.172,3.172 0 1 0 3.172,3.172 3.175,3.175 0 0 0 -3.172,-3.172 z m 0,4.182 a 1.01,1.01 0 1 1 1.01,-1.01 1.012,1.012 0 0 1 -1.01,1.01 z"
       class="a"
       inkscape:connector-curvature="0"
       style="fill:#ffffff" />
    <path
       id="path3921"
       transform="translate(470.05,1723.676)"
       d="m 104.835,155.493 a 1.081,1.081 0 0 0 -1.081,1.081 v 4.77 a 1.081,1.081 0 0 0 2.162,0 v -4.77 a 1.081,1.081 0 0 0 -1.081,-1.081 z"
       class="a"
       inkscape:connector-curvature="0"
       style="fill:#ffffff" />
    <path
       id="path3925"
       transform="translate(373.328,1646.262)"
       d="m 218.493,250.578 2.376,-3.04 a 1.081,1.081 0 0 0 -1.7,-1.331 l -2.376,3.04 a 1.081,1.081 0 0 0 1.7,1.331 z"
       class="a"
       inkscape:connector-curvature="0"
       style="fill:#ffffff" />
    <path
       id="path3927"
       transform="translate(367.767,1649.565)"
       d="m 231.006,242.134 a 1.081,1.081 0 0 0 -1.517,0.186 l -6.237,7.98 a 1.081,1.081 0 1 0 1.7,1.332 l 6.237,-7.98 a 1.081,1.081 0 0 0 -0.183,-1.518 z"
       class="a"
       inkscape:connector-curvature="0"
       style="fill:#ffffff" />
  </g>
  <g
     id="g4095"
     transform="translate(48.252623,52.521728)">
    <path
       id="path4013"
       transform="translate(8.883,8.883)"
       d="m 54.6,41.522 -6.807,9.778 -4.8,-3.943 a 1.2160642,1.2160642 0 1 0 -1.543,1.88 l 5.823,4.78 a 1.214,1.214 0 0 0 0.771,0.277 1.11,1.11 0 0 0 0.167,-0.012 1.219,1.219 0 0 0 0.832,-0.51 L 56.6,42.913 a 1.2180806,1.2180806 0 0 0 -2,-1.391 z"
       class="a"
       inkscape:connector-curvature="0"
       style="fill:#ffffff" />
    <path
       id="path4015"
       transform="translate(1.3,1.3)"
       d="M 11.475,6 A 5.475,5.475 0 1 0 16.95,11.475 5.482,5.482 0 0 0 11.475,6 Z m 0,8.517 a 3.042,3.042 0 1 1 3.042,-3.042 3.045,3.045 0 0 1 -3.042,3.042 z"
       class="a"
       inkscape:connector-curvature="0"
       style="fill:#ffffff" />
    <circle
       id="circle4017"
       transform="translate(59.617,9.734)"
       r="1.217"
       cy="1.217"
       cx="1.217"
       class="a"
       style="fill:#ffffff" />
    <circle
       id="circle4019"
       transform="translate(54.75,9.734)"
       r="1.217"
       cy="1.217"
       cx="1.217"
       class="a"
       style="fill:#ffffff" />
    <circle
       id="circle4021"
       transform="translate(62.05,13.384)"
       r="1.217"
       cy="1.217"
       cx="1.217"
       class="a"
       style="fill:#ffffff" />
    <circle
       id="circle4023"
       transform="translate(57.183,13.384)"
       r="1.217"
       cy="1.217"
       cx="1.217"
       class="a"
       style="fill:#ffffff" />
    <circle
       id="circle4025"
       transform="translate(49.883,9.734)"
       r="1.217"
       cy="1.217"
       cx="1.217"
       class="a"
       style="fill:#ffffff" />
    <circle
       id="circle4027"
       transform="translate(52.317,13.384)"
       r="1.217"
       cy="1.217"
       cx="1.217"
       class="a"
       style="fill:#ffffff" />
    <circle
       id="circle4029"
       transform="translate(45.017,9.734)"
       r="1.217"
       cy="1.217"
       cx="1.217"
       class="a"
       style="fill:#ffffff" />
    <circle
       id="circle4031"
       transform="translate(47.45,13.384)"
       r="1.217"
       cy="1.217"
       cx="1.217"
       class="a"
       style="fill:#ffffff" />
    <circle
       id="circle4033"
       transform="translate(40.15,9.734)"
       r="1.217"
       cy="1.217"
       cx="1.217"
       class="a"
       style="fill:#ffffff" />
    <circle
       id="circle4035"
       transform="translate(42.583,13.384)"
       r="1.217"
       cy="1.217"
       cx="1.217"
       class="a"
       style="fill:#ffffff" />
    <path
       id="path4037"
       d="M 73,19.944 V 5.606 A 5.613,5.613 0 0 0 67.394,0 H 5.606 A 5.613,5.613 0 0 0 0,5.606 V 19.942 A 5.578,5.578 0 0 0 2.162,24.333 5.577,5.577 0 0 0 0,28.723 V 43.059 A 5.578,5.578 0 0 0 2.162,47.45 5.577,5.577 0 0 0 0,51.84 v 14.336 a 5.613,5.613 0 0 0 5.606,5.608 h 45.5 A 15.8,15.8 0 0 0 70.02,47.984 5.607,5.607 0 0 0 73,43.06 V 28.723 A 5.573,5.573 0 0 0 70.838,24.333 5.577,5.577 0 0 0 73,19.944 Z M 47.081,69.35 H 5.606 A 3.177,3.177 0 0 1 2.433,66.177 V 51.84 A 3.177,3.177 0 0 1 5.606,48.667 H 43.871 C 43.786,48.8 43.71,48.94 43.63,49.073 q -0.325,0.542 -0.608,1.11 c -0.1,0.193 -0.193,0.386 -0.281,0.583 -0.088,0.197 -0.18,0.425 -0.265,0.639 -0.085,0.214 -0.168,0.443 -0.245,0.667 -0.067,0.2 -0.137,0.391 -0.2,0.59 q -0.181,0.6 -0.314,1.217 c -0.03,0.145 -0.052,0.293 -0.08,0.439 -0.061,0.331 -0.113,0.663 -0.153,1 -0.017,0.147 -0.035,0.294 -0.047,0.443 -0.043,0.475 -0.072,0.948 -0.072,1.425 a 15.777,15.777 0 0 0 0.1,1.7 c 0.017,0.161 0.051,0.316 0.073,0.476 0.056,0.4 0.116,0.8 0.2,1.187 0.04,0.186 0.095,0.366 0.142,0.55 0.091,0.355 0.186,0.707 0.3,1.051 0.066,0.2 0.141,0.391 0.214,0.585 0.119,0.316 0.245,0.63 0.383,0.937 0.094,0.207 0.193,0.41 0.3,0.613 0.141,0.279 0.288,0.551 0.444,0.82 0.123,0.213 0.249,0.422 0.382,0.629 0.157,0.242 0.322,0.477 0.492,0.711 0.153,0.212 0.305,0.423 0.47,0.628 0.165,0.205 0.356,0.419 0.54,0.623 0.184,0.204 0.353,0.4 0.541,0.595 0.212,0.215 0.44,0.414 0.664,0.616 0.156,0.146 0.305,0.304 0.471,0.443 z m 10.1,1.217 a 13.3,13.3 0 0 1 -5.164,-1.039 l -0.1,-0.045 q -0.526,-0.226 -1.028,-0.5 c -0.1,-0.054 -0.2,-0.116 -0.3,-0.173 -0.252,-0.144 -0.5,-0.292 -0.741,-0.45 -0.094,-0.062 -0.186,-0.125 -0.279,-0.189 -0.274,-0.19 -0.541,-0.389 -0.8,-0.6 -0.041,-0.034 -0.085,-0.066 -0.127,-0.1 Q 48.166,67.077 47.727,66.64 L 47.706,66.618 C 47.433,66.345 47.177,66.058 46.929,65.763 46.88,65.706 46.834,65.647 46.787,65.589 Q 46.457,65.18 46.158,64.748 C 46.128,64.703 46.094,64.66 46.064,64.615 Q 45.732,64.122 45.446,63.598 C 45.408,63.53 45.377,63.461 45.34,63.391 q -0.215,-0.411 -0.4,-0.837 c -0.051,-0.116 -0.1,-0.232 -0.148,-0.35 q -0.168,-0.412 -0.308,-0.838 c -0.03,-0.094 -0.067,-0.185 -0.095,-0.279 -0.111,-0.363 -0.206,-0.732 -0.286,-1.107 -0.024,-0.116 -0.044,-0.232 -0.064,-0.349 -0.054,-0.288 -0.1,-0.578 -0.134,-0.872 -0.015,-0.122 -0.029,-0.245 -0.041,-0.366 -0.036,-0.4 -0.062,-0.8 -0.062,-1.213 0,-0.434 0.024,-0.863 0.066,-1.287 0.019,-0.2 0.054,-0.389 0.082,-0.584 0.032,-0.22 0.06,-0.442 0.1,-0.658 0.047,-0.245 0.11,-0.487 0.17,-0.728 0.04,-0.158 0.077,-0.316 0.122,-0.472 0.078,-0.268 0.169,-0.532 0.264,-0.794 0.044,-0.12 0.085,-0.242 0.133,-0.361 q 0.166,-0.418 0.361,-0.824 c 0.045,-0.1 0.09,-0.191 0.137,-0.285 0.142,-0.282 0.3,-0.561 0.459,-0.833 0.045,-0.075 0.09,-0.151 0.136,-0.225 q 0.265,-0.422 0.56,-0.827 c 0.043,-0.058 0.086,-0.117 0.13,-0.175 0.208,-0.275 0.426,-0.543 0.657,-0.8 0.039,-0.045 0.08,-0.088 0.12,-0.131 q 0.416,-0.456 0.869,-0.871 c 0.044,-0.041 0.089,-0.082 0.133,-0.122 q 0.462,-0.412 0.958,-0.777 c 0.039,-0.028 0.077,-0.058 0.116,-0.086 0.349,-0.253 0.711,-0.487 1.08,-0.7 l 0.068,-0.041 a 13.167,13.167 0 0 1 1.217,-0.623 h 0.006 a 13.324,13.324 0 0 1 3.989,-1.085 l 0.045,-0.006 a 13.158,13.158 0 0 1 1.405,-0.075 13.341,13.341 0 0 1 6.642,1.78 l 0.012,0.007 a 13.358,13.358 0 0 1 1.13,0.731 l 0.083,0.062 c 0.339,0.248 0.668,0.511 0.984,0.792 0.039,0.034 0.078,0.071 0.117,0.106 q 0.456,0.414 0.877,0.871 A 13.36,13.36 0 0 1 57.185,70.576 Z M 70.567,28.723 V 43.059 A 3.175,3.175 0 0 1 68.4,46.048 15.77,15.77 0 0 0 45.817,46.207 L 45.79,46.233 H 5.606 A 3.177,3.177 0 0 1 2.433,43.06 V 28.723 A 3.177,3.177 0 0 1 5.606,25.55 h 61.786 a 3.177,3.177 0 0 1 3.175,3.173 z M 5.606,23.117 A 3.177,3.177 0 0 1 2.433,19.944 V 5.606 A 3.177,3.177 0 0 1 5.606,2.433 h 61.786 a 3.177,3.177 0 0 1 3.174,3.173 v 14.336 a 3.177,3.177 0 0 1 -3.173,3.174 z"
       class="a"
       inkscape:connector-curvature="0"
       style="fill:#ffffff" />
    <path
       id="path4039"
       transform="translate(1.3,5.417)"
       d="M 11.475,35.95 A 5.475,5.475 0 1 0 6,30.475 5.482,5.482 0 0 0 11.475,35.95 Z m 0,-8.517 a 3.042,3.042 0 1 1 -3.042,3.042 3.045,3.045 0 0 1 3.042,-3.042 z"
       class="a"
       inkscape:connector-curvature="0"
       style="fill:#ffffff" />
    <circle
       id="circle4041"
       transform="translate(59.617,32.85)"
       r="1.217"
       cy="1.217"
       cx="1.217"
       class="a"
       style="fill:#ffffff" />
    <circle
       id="circle4043"
       transform="translate(54.75,32.85)"
       r="1.217"
       cy="1.217"
       cx="1.217"
       class="a"
       style="fill:#ffffff" />
    <circle
       id="circle4045"
       transform="translate(62.05,36.5)"
       r="1.217"
       cy="1.217"
       cx="1.217"
       class="a"
       style="fill:#ffffff" />
    <circle
       id="circle4047"
       transform="translate(57.183,36.5)"
       r="1.217"
       cy="1.217"
       cx="1.217"
       class="a"
       style="fill:#ffffff" />
    <circle
       id="circle4049"
       transform="translate(49.883,32.85)"
       r="1.217"
       cy="1.217"
       cx="1.217"
       class="a"
       style="fill:#ffffff" />
    <circle
       id="circle4051"
       transform="translate(52.317,36.5)"
       r="1.217"
       cy="1.217"
       cx="1.217"
       class="a"
       style="fill:#ffffff" />
    <circle
       id="circle4053"
       transform="translate(45.017,32.85)"
       r="1.217"
       cy="1.217"
       cx="1.217"
       class="a"
       style="fill:#ffffff" />
    <circle
       id="circle4055"
       transform="translate(47.45,36.5)"
       r="1.217"
       cy="1.217"
       cx="1.217"
       class="a"
       style="fill:#ffffff" />
    <circle
       id="circle4057"
       transform="translate(40.15,32.85)"
       r="1.217"
       cy="1.217"
       cx="1.217"
       class="a"
       style="fill:#ffffff" />
    <circle
       id="circle4059"
       transform="translate(42.583,36.5)"
       r="1.217"
       cy="1.217"
       cx="1.217"
       class="a"
       style="fill:#ffffff" />
    <path
       id="path4061"
       transform="translate(1.3,9.533)"
       d="M 11.475,44 A 5.475,5.475 0 1 0 16.95,49.475 5.482,5.482 0 0 0 11.475,44 Z m 0,8.517 a 3.042,3.042 0 1 1 3.042,-3.042 3.045,3.045 0 0 1 -3.042,3.042 z"
       class="a"
       inkscape:connector-curvature="0"
       style="fill:#ffffff" />
  </g>
</svg>
